<svg>

    <symbol id="house" viewBox="0 0 576 512" xmlns="http://www.w3.org/2000/svg">
        <path
            d="M511.8 287.6L512.5 447.7C512.5 450.5 512.3 453.1 512 455.8V472C512 494.1 494.1 512 472 512H456C454.9 512 453.8 511.1 452.7 511.9C451.3 511.1 449.9 512 448.5 512H392C369.9 512 352 494.1 352 472V384C352 366.3 337.7 352 320 352H256C238.3 352 224 366.3 224 384V472C224 494.1 206.1 512 184 512H128.1C126.6 512 125.1 511.9 123.6 511.8C122.4 511.9 121.2 512 120 512H104C81.91 512 64 494.1 64 472V360C64 359.1 64.03 358.1 64.09 357.2V287.6H32.05C14.02 287.6 0 273.5 0 255.5C0 246.5 3.004 238.5 10.01 231.5L266.4 8.016C273.4 1.002 281.4 0 288.4 0C295.4 0 303.4 2.004 309.5 7.014L416 100.7V64C416 46.33 430.3 32 448 32H480C497.7 32 512 46.33 512 64V185L564.8 231.5C572.8 238.5 576.9 246.5 575.8 255.5C575.8 273.5 560.8 287.6 543.8 287.6L511.8 287.6z" />
    </symbol>

    <symbol id="user" overflow="hidden" version="1.1" viewBox="8 10 80 70"
        xmlns="http://www.w3.org/2000/svg" xmlns:xlink="http://www.w3.org/1999/xlink">
        <g>
            <circle cx="48" cy="30" r="16" />
            <path
                d=" M 80 82 L 80 66 C 80 63.6 78.8 61.2 76.8 59.6 C 72.4 56 66.8 53.6 61.2 52 C 57.2 50.8 52.8 50 48 50 C 43.6 50 39.2 50.8 34.8 52 C 29.2 53.6 23.6 56.4 19.2 59.6 C 17.2 61.2 16 63.6 16 66 L 16 82 L 80 82 Z" />
        </g>
    </symbol>

    <symbol id="case" style="enable-background:new 0 0 32 32;" version="1.1" viewBox="2 3 28 25"
        xml:space="preserve" xmlns="http://www.w3.org/2000/svg"
        xmlns:xlink="http://www.w3.org/1999/xlink">
        <g>
            <path d="M26,9h-2.6c-1.2-3-4.1-5-7.4-5c-3.3,0-6.2,2-7.4,5H6c-1.7,0-3,1.3-3,3v0.6C3,16.1,5.9,19,9.4,19h13.3   c3.5,0,6.4-2.9,6.4-6.4V12C29,10.3,27.7,9,26,9z M16,6c2.2,0,4.1,1.2,5.2,3H10.8C11.9,7.2,13.8,6,16,6z" />
            <path d="M23,21C23,21,23,21,23,21l0,2c0,0.6-0.4,1-1,1s-1-0.4-1-1v-2H11v2c0,0.6-0.4,1-1,1s-1-0.4-1-1v-2c0,0,0,0,0,0   c-2.4-0.1-4.5-1.2-6-2.9V25c0,1.7,1.3,3,3,3h20c1.7,0,3-1.3,3-3v-6.9C27.5,19.8,25.4,20.9,23,21z" />
        </g>
    </symbol>

    <symbol id="mail" style="enable-background:new 0 0 512 512;" version="1.1"
        viewBox="50 90 420 300" xml:space="preserve" xmlns="http://www.w3.org/2000/svg"
        xmlns:xlink="http://www.w3.org/1999/xlink">
        <g>
            <path d="M67,148.7c11,5.8,163.8,89.1,169.5,92.1c5.7,3,11.5,4.4,20.5,4.4c9,0,14.8-1.4,20.5-4.4c5.7-3,158.5-86.3,169.5-92.1   c4.1-2.1,11-5.9,12.5-10.2c2.6-7.6-0.2-10.5-11.3-10.5H257H65.8c-11.1,0-13.9,3-11.3,10.5C56,142.9,62.9,146.6,67,148.7z" />
            <path d="M455.7,153.2c-8.2,4.2-81.8,56.6-130.5,88.1l82.2,92.5c2,2,2.9,4.4,1.8,5.6c-1.2,1.1-3.8,0.5-5.9-1.4l-98.6-83.2   c-14.9,9.6-25.4,16.2-27.2,17.2c-7.7,3.9-13.1,4.4-20.5,4.4c-7.4,0-12.8-0.5-20.5-4.4c-1.9-1-12.3-7.6-27.2-17.2l-98.6,83.2   c-2,2-4.7,2.6-5.9,1.4c-1.2-1.1-0.3-3.6,1.7-5.6l82.1-92.5c-48.7-31.5-123.1-83.9-131.3-88.1c-8.8-4.5-9.3,0.8-9.3,4.9   c0,4.1,0,205,0,205c0,9.3,13.7,20.9,23.5,20.9H257h185.5c9.8,0,21.5-11.7,21.5-20.9c0,0,0-201,0-205   C464,153.9,464.6,148.7,455.7,153.2z" />
        </g>
    </symbol>

    <symbol id="education" style="enable-background:new 0 0 16 16;" version="1.1"
        viewBox="0 0 16 16" xml:space="preserve" xmlns="http://www.w3.org/2000/svg"
        xmlns:xlink="http://www.w3.org/1999/xlink">
        <polygon points="0,5 8,9 15,5.5 15,14 16,14 16,5 8,1 " />
        <polygon points="3,7.059 3,11.5 8,14 13,11.5 13,7.059 8,9.559 " />
    </symbol>

    <symbol id="node" viewBox="0 0 640 512" xmlns="http://www.w3.org/2000/svg">
        <path
            d="M316.3 452c-2.1 0-4.2-.6-6.1-1.6L291 439c-2.9-1.6-1.5-2.2-.5-2.5 3.8-1.3 4.6-1.6 8.7-4 .4-.2 1-.1 1.4.1l14.8 8.8c.5.3 1.3.3 1.8 0L375 408c.5-.3.9-.9.9-1.6v-66.7c0-.7-.3-1.3-.9-1.6l-57.8-33.3c-.5-.3-1.2-.3-1.8 0l-57.8 33.3c-.6.3-.9 1-.9 1.6v66.7c0 .6.4 1.2.9 1.5l15.8 9.1c8.6 4.3 13.9-.8 13.9-5.8v-65.9c0-.9.7-1.7 1.7-1.7h7.3c.9 0 1.7.7 1.7 1.7v65.9c0 11.5-6.2 18-17.1 18-3.3 0-6 0-13.3-3.6l-15.2-8.7c-3.7-2.2-6.1-6.2-6.1-10.5v-66.7c0-4.3 2.3-8.4 6.1-10.5l57.8-33.4c3.7-2.1 8.5-2.1 12.1 0l57.8 33.4c3.7 2.2 6.1 6.2 6.1 10.5v66.7c0 4.3-2.3 8.4-6.1 10.5l-57.8 33.4c-1.7 1.1-3.8 1.7-6 1.7zm46.7-65.8c0-12.5-8.4-15.8-26.2-18.2-18-2.4-19.8-3.6-19.8-7.8 0-3.5 1.5-8.1 14.8-8.1 11.9 0 16.3 2.6 18.1 10.6.2.8.8 1.3 1.6 1.3h7.5c.5 0 .9-.2 1.2-.5.3-.4.5-.8.4-1.3-1.2-13.8-10.3-20.2-28.8-20.2-16.5 0-26.3 7-26.3 18.6 0 12.7 9.8 16.1 25.6 17.7 18.9 1.9 20.4 4.6 20.4 8.3 0 6.5-5.2 9.2-17.4 9.2-15.3 0-18.7-3.8-19.8-11.4-.1-.8-.8-1.4-1.7-1.4h-7.5c-.9 0-1.7.7-1.7 1.7 0 9.7 5.3 21.3 30.6 21.3 18.5 0 29-7.2 29-19.8zm54.5-50.1c0 6.1-5 11.1-11.1 11.1s-11.1-5-11.1-11.1c0-6.3 5.2-11.1 11.1-11.1 6-.1 11.1 4.8 11.1 11.1zm-1.8 0c0-5.2-4.2-9.3-9.4-9.3-5.1 0-9.3 4.1-9.3 9.3 0 5.2 4.2 9.4 9.3 9.4 5.2-.1 9.4-4.3 9.4-9.4zm-4.5 6.2h-2.6c-.1-.6-.5-3.8-.5-3.9-.2-.7-.4-1.1-1.3-1.1h-2.2v5h-2.4v-12.5h4.3c1.5 0 4.4 0 4.4 3.3 0 2.3-1.5 2.8-2.4 3.1 1.7.1 1.8 1.2 2.1 2.8.1 1 .3 2.7.6 3.3zm-2.8-8.8c0-1.7-1.2-1.7-1.8-1.7h-2v3.5h1.9c1.6 0 1.9-1.1 1.9-1.8zM137.3 191c0-2.7-1.4-5.1-3.7-6.4l-61.3-35.3c-1-.6-2.2-.9-3.4-1h-.6c-1.2 0-2.3.4-3.4 1L3.7 184.6C1.4 185.9 0 188.4 0 191l.1 95c0 1.3.7 2.5 1.8 3.2 1.1.7 2.5.7 3.7 0L42 268.3c2.3-1.4 3.7-3.8 3.7-6.4v-44.4c0-2.6 1.4-5.1 3.7-6.4l15.5-8.9c1.2-.7 2.4-1 3.7-1 1.3 0 2.6.3 3.7 1l15.5 8.9c2.3 1.3 3.7 3.8 3.7 6.4v44.4c0 2.6 1.4 5.1 3.7 6.4l36.4 20.9c1.1.7 2.6.7 3.7 0 1.1-.6 1.8-1.9 1.8-3.2l.2-95zM472.5 87.3v176.4c0 2.6-1.4 5.1-3.7 6.4l-61.3 35.4c-2.3 1.3-5.1 1.3-7.4 0l-61.3-35.4c-2.3-1.3-3.7-3.8-3.7-6.4v-70.8c0-2.6 1.4-5.1 3.7-6.4l61.3-35.4c2.3-1.3 5.1-1.3 7.4 0l15.3 8.8c1.7 1 3.9-.3 3.9-2.2v-94c0-2.8 3-4.6 5.5-3.2l36.5 20.4c2.3 1.2 3.8 3.7 3.8 6.4zm-46 128.9c0-.7-.4-1.3-.9-1.6l-21-12.2c-.6-.3-1.3-.3-1.9 0l-21 12.2c-.6.3-.9.9-.9 1.6v24.3c0 .7.4 1.3.9 1.6l21 12.1c.6.3 1.3.3 1.8 0l21-12.1c.6-.3.9-.9.9-1.6v-24.3zm209.8-.7c2.3-1.3 3.7-3.8 3.7-6.4V192c0-2.6-1.4-5.1-3.7-6.4l-60.9-35.4c-2.3-1.3-5.1-1.3-7.4 0l-61.3 35.4c-2.3 1.3-3.7 3.8-3.7 6.4v70.8c0 2.7 1.4 5.1 3.7 6.4l60.9 34.7c2.2 1.3 5 1.3 7.3 0l36.8-20.5c2.5-1.4 2.5-5 0-6.4L550 241.6c-1.2-.7-1.9-1.9-1.9-3.2v-22.2c0-1.3.7-2.5 1.9-3.2l19.2-11.1c1.1-.7 2.6-.7 3.7 0l19.2 11.1c1.1.7 1.9 1.9 1.9 3.2v17.4c0 2.8 3.1 4.6 5.6 3.2l36.7-21.3zM559 219c-.4.3-.7.7-.7 1.2v13.6c0 .5.3 1 .7 1.2l11.8 6.8c.4.3 1 .3 1.4 0L584 235c.4-.3.7-.7.7-1.2v-13.6c0-.5-.3-1-.7-1.2l-11.8-6.8c-.4-.3-1-.3-1.4 0L559 219zm-254.2 43.5v-70.4c0-2.6-1.6-5.1-3.9-6.4l-61.1-35.2c-2.1-1.2-5-1.4-7.4 0l-61.1 35.2c-2.3 1.3-3.9 3.7-3.9 6.4v70.4c0 2.8 1.9 5.2 4 6.4l61.2 35.2c2.4 1.4 5.2 1.3 7.4 0l61-35.2c1.8-1 3.1-2.7 3.6-4.7.1-.5.2-1.1.2-1.7zm-74.3-124.9l-.8.5h1.1l-.3-.5zm76.2 130.2l-.4-.7v.9l.4-.2z" />
    </symbol>

    <symbol id="bootstrap" viewBox="0 0 576 512" xmlns="http://www.w3.org/2000/svg">
        <path
            d="M333.5,201.4c0-22.1-15.6-34.3-43-34.3h-50.4v71.2h42.5C315.4,238.2,333.5,225,333.5,201.4z M517,188.6 c-9.5-30.9-10.9-68.8-9.8-98.1c1.1-30.5-22.7-58.5-54.7-58.5H123.7c-32.1,0-55.8,28.1-54.7,58.5c1,29.3-0.3,67.2-9.8,98.1 c-9.6,31-25.7,50.6-52.2,53.1v28.5c26.4,2.5,42.6,22.1,52.2,53.1c9.5,30.9,10.9,68.8,9.8,98.1c-1.1,30.5,22.7,58.5,54.7,58.5h328.7 c32.1,0,55.8-28.1,54.7-58.5c-1-29.3,0.3-67.2,9.8-98.1c9.6-31,25.7-50.6,52.1-53.1v-28.5C542.7,239.2,526.5,219.6,517,188.6z M300.2,375.1h-97.9V136.8h97.4c43.3,0,71.7,23.4,71.7,59.4c0,25.3-19.1,47.9-43.5,51.8v1.3c33.2,3.6,55.5,26.6,55.5,58.3 C383.4,349.7,352.1,375.1,300.2,375.1z M290.2,266.4h-50.1v78.4h52.3c34.2,0,52.3-13.7,52.3-39.5 C344.7,279.6,326.1,266.4,290.2,266.4z" />
    </symbol>

    <symbol id="gulp" viewBox="0 -100 256 712" xmlns="http://www.w3.org/2000/svg">
        <path
            d="M209.8 391.1l-14.1 24.6-4.6 80.2c0 8.9-28.3 16.1-63.1 16.1s-63.1-7.2-63.1-16.1l-5.8-79.4-14.9-25.4c41.2 17.3 126 16.7 165.6 0zm-196-253.3l13.6 125.5c5.9-20 20.8-47 40-55.2 6.3-2.7 12.7-2.7 18.7.9 5.2 3 9.6 9.3 10.1 11.8 1.2 6.5-2 9.1-4.5 9.1-3 0-5.3-4.6-6.8-7.3-4.1-7.3-10.3-7.6-16.9-2.8-6.9 5-12.9 13.4-17.1 20.7-5.1 8.8-9.4 18.5-12 28.2-1.5 5.6-2.9 14.6-.6 19.9 1 2.2 2.5 3.6 4.9 3.6 5 0 12.3-6.6 15.8-10.1 4.5-4.5 10.3-11.5 12.5-16l5.2-15.5c2.6-6.8 9.9-5.6 9.9 0 0 10.2-3.7 13.6-10 34.7-5.8 19.5-7.6 25.8-7.6 25.8-.7 2.8-3.4 7.5-6.3 7.5-1.2 0-2.1-.4-2.6-1.2-1-1.4-.9-5.3-.8-6.3.2-3.2 6.3-22.2 7.3-25.2-2 2.2-4.1 4.4-6.4 6.6-5.4 5.1-14.1 11.8-21.5 11.8-3.4 0-5.6-.9-7.7-2.4l7.6 79.6c2 5 39.2 17.1 88.2 17.1 49.1 0 86.3-12.2 88.2-17.1l10.9-94.6c-5.7 5.2-12.3 11.6-19.6 14.8-5.4 2.3-17.4 3.8-17.4-5.7 0-5.2 9.1-14.8 14.4-21.5 1.4-1.7 4.7-5.9 4.7-8.1 0-2.9-6-2.2-11.7 2.5-3.2 2.7-6.2 6.3-8.7 9.7-4.3 6-6.6 11.2-8.5 15.5-6.2 14.2-4.1 8.6-9.1 22-5 13.3-4.2 11.8-5.2 14-.9 1.9-2.2 3.5-4 4.5-1.9 1-4.5.9-6.1-.3-.9-.6-1.3-1.9-1.3-3.7 0-.9.1-1.8.3-2.7 1.5-6.1 7.8-18.1 15-34.3 1.6-3.7 1-2.6.8-2.3-6.2 6-10.9 8.9-14.4 10.5-5.8 2.6-13 2.6-14.5-4.1-.1-.4-.1-.8-.2-1.2-11.8 9.2-24.3 11.7-20-8.1-4.6 8.2-12.6 14.9-22.4 14.9-4.1 0-7.1-1.4-8.6-5.1-2.3-5.5 1.3-14.9 4.6-23.8 1.7-4.5 4-9.9 7.1-16.2 1.6-3.4 4.2-5.4 7.6-4.5.6.2 1.1.4 1.6.7 2.6 1.8 1.6 4.5.3 7.2-3.8 7.5-7.1 13-9.3 20.8-.9 3.3-2 9 1.5 9 2.4 0 4.7-.8 6.9-2.4 4.6-3.4 8.3-8.5 11.1-13.5 2-3.6 4.4-8.3 5.6-12.3.5-1.7 1.1-3.3 1.8-4.8 1.1-2.5 2.6-5.1 5.2-5.1 1.3 0 2.4.5 3.2 1.5 1.7 2.2 1.3 4.5.4 6.9-2 5.6-4.7 10.6-6.9 16.7-1.3 3.5-2.7 8-2.7 11.7 0 3.4 3.7 2.6 6.8 1.2 2.4-1.1 4.8-2.8 6.8-4.5 1.2-4.9.9-3.8 26.4-68.2 1.3-3.3 3.7-4.7 6.1-4.7 1.2 0 2.2.4 3.2 1.1 1.7 1.3 1.7 4.1 1 6.2-.7 1.9-.6 1.3-4.5 10.5-5.2 12.1-8.6 20.8-13.2 31.9-1.9 4.6-7.7 18.9-8.7 22.3-.6 2.2-1.3 5.8 1 5.8 5.4 0 19.3-13.1 23.1-17 .2-.3.5-.4.9-.6.6-1.9 1.2-3.7 1.7-5.5 1.4-3.8 2.7-8.2 5.3-11.3.8-1 1.7-1.6 2.7-1.6 2.8 0 4.2 1.2 4.2 4 0 1.1-.7 5.1-1.1 6.2 1.4-1.5 2.9-3 4.5-4.5 15-13.9 25.7-6.8 25.7.2 0 7.4-8.9 17.7-13.8 23.4-1.6 1.9-4.9 5.4-5 6.4 0 1.3.9 1.8 2.2 1.8 2 0 6.4-3.5 8-4.7 5-3.9 11.8-9.9 16.6-14.1l14.8-136.8c-30.5 17.1-197.6 17.2-228.3.2zm229.7-8.5c0 21-231.2 21-231.2 0 0-8.8 51.8-15.9 115.6-15.9 9 0 17.8.1 26.3.4l12.6-48.7L228.1.6c1.4-1.4 5.8-.2 9.9 3.5s6.6 7.9 5.3 9.3l-.1.1L185.9 74l-10 40.7c39.9 2.6 67.6 8.1 67.6 14.6zm-69.4 4.6c0-.8-.9-1.5-2.5-2.1l-.2.8c0 1.3-5 2.4-11.1 2.4s-11.1-1.1-11.1-2.4c0-.1 0-.2.1-.3l.2-.7c-1.8.6-3 1.4-3 2.3 0 2.1 6.2 3.7 13.7 3.7 7.7.1 13.9-1.6 13.9-3.7z" />
    </symbol>

    <symbol id="react" enable-background="new 0 0 128 128" viewBox="0 0 128 128"
        xmlns="http://www.w3.org/2000/svg">
        <g>
            <circle cx="64" cy="47.5" r="9.3" />
            <path
                d="M64 81.7c7.3 7.1 14.5 11.3 20.3 11.3 1.9 0 3.7-.4 5.2-1.3 5.2-3 7.1-10.5 5.3-21.2-.3-1.9-.7-3.8-1.2-5.8 2-.6 3.8-1.2 5.6-1.8 10.1-3.9 15.7-9.3 15.7-15.2 0-6-5.6-11.4-15.7-15.2-1.8-.7-3.6-1.3-5.6-1.8.5-2 .9-3.9 1.2-5.8 1.7-10.9-.2-18.5-5.4-21.5-1.5-.9-3.3-1.3-5.2-1.3-5.7 0-13 4.2-20.3 11.3-7.2-7.1-14.4-11.3-20.2-11.3-1.9 0-3.7.4-5.2 1.3-5.2 3-7.1 10.5-5.3 21.2.3 1.9.7 3.8 1.2 5.8-2 .6-3.8 1.2-5.6 1.8-10.1 3.9-15.7 9.3-15.7 15.2 0 6 5.6 11.4 15.7 15.2 1.8.7 3.6 1.3 5.6 1.8-.5 2-.9 3.9-1.2 5.8-1.7 10.7.2 18.3 5.3 21.2 1.5.9 3.3 1.3 5.2 1.3 5.8.2 13-4 20.3-11zm-5.6-13.5c1.8.1 3.7.1 5.6.1 1.9 0 3.8 0 5.6-.1-1.8 2.4-3.7 4.6-5.6 6.7-1.9-2.1-3.8-4.3-5.6-6.7zm-12.4-10.3c1 1.7 1.9 3.3 3 4.9-3.1-.4-6-.9-8.8-1.5.9-2.7 1.9-5.5 3.1-8.3.8 1.6 1.7 3.3 2.7 4.9zm-5.8-24.1c2.8-.6 5.7-1.1 8.8-1.5-1 1.6-2 3.2-3 4.9-1 1.7-1.9 3.3-2.7 5-1.3-2.9-2.3-5.7-3.1-8.4zm5.5 13.7c1.3-2.7 2.7-5.4 4.3-8.1 1.5-2.6 3.2-5.2 4.9-7.8 3-.2 6-.3 9.1-.3 3.2 0 6.2.1 9.1.3 1.8 2.6 3.4 5.2 4.9 7.8 1.6 2.7 3 5.4 4.3 8.1-1.3 2.7-2.7 5.4-4.3 8.1-1.5 2.6-3.2 5.2-4.9 7.8-3 .2-6 .3-9.1.3-3.2 0-6.2-.1-9.1-.3-1.8-2.6-3.4-5.2-4.9-7.8-1.6-2.7-3-5.4-4.3-8.1zm39.1-5.4l-2.7-5c-1-1.7-1.9-3.3-3-4.9 3.1.4 6 .9 8.8 1.5-.9 2.8-1.9 5.6-3.1 8.4zm0 10.8c1.2 2.8 2.2 5.6 3.1 8.3-2.8.6-5.7 1.1-8.8 1.5 1-1.6 2-3.2 3-4.9.9-1.5 1.8-3.2 2.7-4.9zm2.3 34.7c-.8.5-1.8.7-2.9.7-4.9 0-11-4-17-10 2.9-3.1 5.7-6.6 8.5-10.5 4.7-.4 9.2-1.1 13.4-2.1.5 1.8.8 3.6 1.1 5.4 1.4 8.5.3 14.6-3.1 16.5zm5.2-52.7c11.2 3.2 17.9 8.1 17.9 12.6 0 3.9-4.6 7.8-12.7 10.9-1.6.6-3.4 1.2-5.2 1.7-1.3-4.1-2.9-8.3-4.9-12.6 2-4.3 3.7-8.5 4.9-12.6zm-8-28.2c1.1 0 2 .2 2.9.7 3.3 1.9 4.5 7.9 3.1 16.5-.3 1.7-.7 3.5-1.1 5.4-4.2-.9-8.7-1.6-13.4-2.1-2.7-3.9-5.6-7.4-8.5-10.5 6-5.9 12.1-10 17-10zm-14.7 20.1c-1.8-.1-3.7-.1-5.6-.1s-3.8 0-5.6.1c1.8-2.4 3.7-4.6 5.6-6.7 1.9 2.1 3.8 4.4 5.6 6.7zm-28.7-19.4c.8-.5 1.8-.7 2.9-.7 4.9 0 11 4 17 10-2.9 3.1-5.7 6.6-8.5 10.5-4.7.4-9.2 1.1-13.4 2.1-.5-1.8-.8-3.6-1.1-5.4-1.4-8.5-.3-14.5 3.1-16.5zm-5.2 52.7c-11.2-3.2-17.9-8.1-17.9-12.6 0-3.9 4.6-7.8 12.7-10.9 1.6-.6 3.4-1.2 5.2-1.7 1.3 4.1 2.9 8.3 4.9 12.6-2 4.3-3.7 8.6-4.9 12.6zm2.1 11c.3-1.7.7-3.5 1.1-5.4 4.2.9 8.7 1.6 13.4 2.1 2.7 3.9 5.6 7.4 8.5 10.5-6 5.9-12.1 10-17 10-1.1 0-2-.2-2.9-.7-3.4-1.9-4.5-8-3.1-16.5zM33.6 112.3c2.2-2.7 2.3-5.7 1.1-8.7-1.2-3-3.7-4.4-6.8-4.5-3.7-.1-7.5 0-11.2 0h-.7v25.9h3v-9.8h4.7c.6 0 1.1.2 1.4.7l6 9.3c.1.2.4.5.6.5h3.9c-2.4-3.7-4.7-7.2-7.1-10.8 2.1-.3 3.9-1 5.1-2.6zm-14.6-.2v-9.9h1.1c2.3 0 4.7-.1 7 .1 2.7.1 4.6 2.2 4.6 4.9s-2.2 4.8-4.9 4.9c-2.4.1-4.8 0-7.8 0zM57.7 113.4c-1.6-7-8-8.8-12.9-6.6-3.8 1.7-5.5 5-5.6 9.1-.1 3.1.8 5.9 3.2 8 2.7 2.4 6 2.7 9.4 2.1 1.9-.4 3.6-1.3 4.9-2.7-.5-.7-1-1.4-1.5-2-2.8 2.4-5.9 3.2-9.3 1.6-2.2-1.1-3.3-3.8-3.5-5.8h15.5v-1.3c.1-.9 0-1.7-.2-2.4zm-15.1 1.6c-.3-3 2.7-6.2 6-6.2 3.8-.1 6.2 2.2 6.3 6.2h-12.3zM73.3 106.3c-1.5-.3-3.1-.4-4.6-.3-2.4.2-4.5 1.3-6.2 3.1.5.7.9 1.4 1.5 2.2.2-.2.4-.4.6-.5 1.6-1.5 3.5-2.3 5.8-2.1 1.8.1 3.5.7 4 2.5.4 1.4.3 2.9.4 4.4-.3 0-.4-.1-.5-.2-2.4-2-5.1-2.4-8-1.7-2.7.7-4.4 2.8-4.6 5.5-.2 3.1 1.2 5.4 3.9 6.5 1.7.7 3.6.7 5.4.3 1.4-.3 2-1.1 4-2.2v1.3h2.8c0-4 .1-8.9 0-13.5 0-2.9-1.7-4.7-4.5-5.3zm1.4 12.6c-.1.3 0 .6 0 .9 0 2.1-.5 2.8-2.5 3.6-1.4.5-2.9.7-4.4.2-1.7-.5-2.9-2-2.9-3.7-.1-1.7 1-3.4 2.7-3.9 2.3-.8 4.4-.3 6.3 1.1.6.5 1 1 .8 1.8zM90.3 109c2.6-.8 5-.3 6.8 1.9l.3.2c.7-.6 1.3-1.2 2.1-1.9-.3-.3-.4-.5-.6-.8-2.9-3.1-8.6-3.5-12.1-1-4.9 3.6-4.8 10.6-2.4 14.3 2.3 3.5 5.6 4.7 9.5 4.2 2.3-.3 4.2-1.4 5.7-3.3-.7-.6-1.4-1.2-2.1-1.9-.2.2-.3.3-.4.5-2.7 3-7.2 2.7-9.6-.5-1.4-1.9-1.7-4.1-1.3-6.3.2-2.5 1.5-4.5 4.1-5.4zM111.1 122.6c-.2.1-.3.2-.3.2-.8.6-1.6.7-2.5.4-.9-.4-1-1.2-1.1-2v-11.4c0-.2 0 .2.1-.8h3.8v-3h-4v-5h-3v5.4h-2.6c-.2 0-.5.2-.5.4-.1.7 0 1.2 0 2.2h3.2v12.799999999999999c0 1.6.4 3 1.8 3.8 1.5.9 4.4.7 5.7-.4.2-.1.3-.5.3-.6-.3-.6-.6-1.3-.9-2z" />
        </g>
    </symbol>

    <symbol id="sass" viewBox="0 0 640 512" xmlns="http://www.w3.org/2000/svg">
        <path
            d="M301.84 378.92c-.3.6-.6 1.08 0 0zm249.13-87a131.16 131.16 0 0 0-58 13.5c-5.9-11.9-12-22.3-13-30.1-1.2-9.1-2.5-14.5-1.1-25.3s7.7-26.1 7.6-27.2-1.4-6.6-14.3-6.7-24 2.5-25.29 5.9a122.83 122.83 0 0 0-5.3 19.1c-2.3 11.7-25.79 53.5-39.09 75.3-4.4-8.5-8.1-16-8.9-22-1.2-9.1-2.5-14.5-1.1-25.3s7.7-26.1 7.6-27.2-1.4-6.6-14.29-6.7-24 2.5-25.3 5.9-2.7 11.4-5.3 19.1-33.89 77.3-42.08 95.4c-4.2 9.2-7.8 16.6-10.4 21.6-.4.8-.7 1.3-.9 1.7.3-.5.5-1 .5-.8-2.2 4.3-3.5 6.7-3.5 6.7v.1c-1.7 3.2-3.6 6.1-4.5 6.1-.6 0-1.9-8.4.3-19.9 4.7-24.2 15.8-61.8 15.7-63.1-.1-.7 2.1-7.2-7.3-10.7-9.1-3.3-12.4 2.2-13.2 2.2s-1.4 2-1.4 2 10.1-42.4-19.39-42.4c-18.4 0-44 20.2-56.58 38.5-7.9 4.3-25 13.6-43 23.5-6.9 3.8-14 7.7-20.7 11.4-.5-.5-.9-1-1.4-1.5-35.79-38.2-101.87-65.2-99.07-116.5 1-18.7 7.5-67.8 127.07-127.4 98-48.8 176.35-35.4 189.84-5.6 19.4 42.5-41.89 121.6-143.66 133-38.79 4.3-59.18-10.7-64.28-16.3-5.3-5.9-6.1-6.2-8.1-5.1-3.3 1.8-1.2 7 0 10.1 3 7.9 15.5 21.9 36.79 28.9 18.7 6.1 64.18 9.5 119.17-11.8 61.78-23.8 109.87-90.1 95.77-145.6C386.52 18.32 293-.18 204.57 31.22c-52.69 18.7-109.67 48.1-150.66 86.4-48.69 45.6-56.48 85.3-53.28 101.9 11.39 58.9 92.57 97.3 125.06 125.7-1.6.9-3.1 1.7-4.5 2.5-16.29 8.1-78.18 40.5-93.67 74.7-17.5 38.8 2.9 66.6 16.29 70.4 41.79 11.6 84.58-9.3 107.57-43.6s20.2-79.1 9.6-99.5c-.1-.3-.3-.5-.4-.8 4.2-2.5 8.5-5 12.8-7.5 8.29-4.9 16.39-9.4 23.49-13.3-4 10.8-6.9 23.8-8.4 42.6-1.8 22 7.3 50.5 19.1 61.7 5.2 4.9 11.49 5 15.39 5 13.8 0 20-11.4 26.89-25 8.5-16.6 16-35.9 16-35.9s-9.4 52.2 16.3 52.2c9.39 0 18.79-12.1 23-18.3v.1s.2-.4.7-1.2c1-1.5 1.5-2.4 1.5-2.4v-.3c3.8-6.5 12.1-21.4 24.59-46 16.2-31.8 31.69-71.5 31.69-71.5a201.24 201.24 0 0 0 6.2 25.8c2.8 9.5 8.7 19.9 13.4 30-3.8 5.2-6.1 8.2-6.1 8.2a.31.31 0 0 0 .1.2c-3 4-6.4 8.3-9.9 12.5-12.79 15.2-28 32.6-30 37.6-2.4 5.9-1.8 10.3 2.8 13.7 3.4 2.6 9.4 3 15.69 2.5 11.5-.8 19.6-3.6 23.5-5.4a82.2 82.2 0 0 0 20.19-10.6c12.5-9.2 20.1-22.4 19.4-39.8-.4-9.6-3.5-19.2-7.3-28.2 1.1-1.6 2.3-3.3 3.4-5C434.8 301.72 450.1 270 450.1 270a201.24 201.24 0 0 0 6.2 25.8c2.4 8.1 7.09 17 11.39 25.7-18.59 15.1-30.09 32.6-34.09 44.1-7.4 21.3-1.6 30.9 9.3 33.1 4.9 1 11.9-1.3 17.1-3.5a79.46 79.46 0 0 0 21.59-11.1c12.5-9.2 24.59-22.1 23.79-39.6-.3-7.9-2.5-15.8-5.4-23.4 15.7-6.6 36.09-10.2 62.09-7.2 55.68 6.5 66.58 41.3 64.48 55.8s-13.8 22.6-17.7 25-5.1 3.3-4.8 5.1c.5 2.6 2.3 2.5 5.6 1.9 4.6-.8 29.19-11.8 30.29-38.7 1.6-34-31.09-71.4-89-71.1zm-429.18 144.7c-18.39 20.1-44.19 27.7-55.28 21.3C54.61 451 59.31 421.42 82 400c13.8-13 31.59-25 43.39-32.4 2.7-1.6 6.6-4 11.4-6.9.8-.5 1.2-.7 1.2-.7.9-.6 1.9-1.1 2.9-1.7 8.29 30.4.3 57.2-19.1 78.3zm134.36-91.4c-6.4 15.7-19.89 55.7-28.09 53.6-7-1.8-11.3-32.3-1.4-62.3 5-15.1 15.6-33.1 21.9-40.1 10.09-11.3 21.19-14.9 23.79-10.4 3.5 5.9-12.2 49.4-16.2 59.2zm111 53c-2.7 1.4-5.2 2.3-6.4 1.6-.9-.5 1.1-2.4 1.1-2.4s13.9-14.9 19.4-21.7c3.2-4 6.9-8.7 10.89-13.9 0 .5.1 1 .1 1.6-.13 17.9-17.32 30-25.12 34.8zm85.58-19.5c-2-1.4-1.7-6.1 5-20.7 2.6-5.7 8.59-15.3 19-24.5a36.18 36.18 0 0 1 1.9 10.8c-.1 22.5-16.2 30.9-25.89 34.4z" />
    </symbol>

    <symbol id="js" viewBox="0 0 448 512" xmlns="http://www.w3.org/2000/svg">
        <path
            d="M0 32v448h448V32H0zm243.8 349.4c0 43.6-25.6 63.5-62.9 63.5-33.7 0-53.2-17.4-63.2-38.5l34.3-20.7c6.6 11.7 12.6 21.6 27.1 21.6 13.8 0 22.6-5.4 22.6-26.5V237.7h42.1v143.7zm99.6 63.5c-39.1 0-64.4-18.6-76.7-43l34.3-19.8c9 14.7 20.8 25.6 41.5 25.6 17.4 0 28.6-8.7 28.6-20.8 0-14.4-11.4-19.5-30.7-28l-10.5-4.5c-30.4-12.9-50.5-29.2-50.5-63.5 0-31.6 24.1-55.6 61.6-55.6 26.8 0 46 9.3 59.8 33.7L368 290c-7.2-12.9-15-18-27.1-18-12.3 0-20.1 7.8-20.1 18 0 12.6 7.8 17.7 25.9 25.6l10.5 4.5c35.8 15.3 55.9 31 55.9 66.2 0 37.8-29.8 58.6-69.7 58.6z" />
    </symbol>

    <symbol enable-background="new 0 0 24 24" id="git" version="1.1" viewBox="0 0 24 24"
        xml:space="preserve" xmlns="http://www.w3.org/2000/svg"
        xmlns:xlink="http://www.w3.org/1999/xlink">
        <g>
            <path d="M23.5615234,10.9320221c-0.0009766,0-0.0009766-0.0004883-0.0009766-0.0004883L13.0615234,0.4256744   c-0.5664063-0.567749-1.5576172-0.5672607-2.1220703-0.0004883L0.4384766,10.9320221C0.15625,11.2158966,0,11.5926056,0,11.9927521   c0,0.4006348,0.15625,0.777771,0.4394531,1.0611572l10.4990234,10.5058594   C11.2216797,23.8436432,11.5986328,24.0000153,12,24.0000153s0.7783203-0.1563721,1.0605469-0.4397583l10.5-10.5063477   C23.84375,12.7705231,24,12.3933868,24,11.9927521C24,11.5926056,23.84375,11.2158966,23.5615234,10.9320221z" fill="#EF473B" />
            <path d="M23.6809692,12.6898956l-10.609375,10.6157837   C12.786438,23.5919952,12.4055176,23.7500153,12,23.7500153s-0.786438-0.15802-1.0725708-0.4448242L0.3190308,12.6898956   c-0.1239624-0.1240845-0.218689-0.2683716-0.2921143-0.4222412c0.0545654,0.2959595,0.1953125,0.5689087,0.4125366,0.7862549   l10.4990234,10.5058594C11.2216797,23.8436432,11.5986328,24.0000153,12,24.0000153s0.7783203-0.1563721,1.0605469-0.4397583   l10.5-10.5063477c0.2172241-0.2173462,0.3580322-0.4902954,0.4125977-0.7862549   C23.8997192,12.421524,23.8049316,12.5658112,23.6809692,12.6898956z" fill="#010101" opacity="0.1" />
            <path d="M17,10.0000153c-0.3748779,0-0.7219849,0.1100464-1.0222168,0.2902832l-2.2680664-2.2680664   C13.8898926,7.7220612,14,7.3749542,14,7.0000153c0-1.1030273-0.8974609-2-2-2   c-0.369873,0-0.7122803,0.1077881-1.0098267,0.2835693L8.536438,2.8295441L7.8295898,3.5367584l2.4536743,2.4539795   C10.1077271,6.2881012,10,6.6303253,10,7.0000153c0,0.9293213,0.6400146,1.7053833,1.5,1.9289551v6.1420898   C10.6400146,15.294632,10,16.070694,10,17.0000153c0,1.1030273,0.8974609,2,2,2s2-0.8969727,2-2   c0-0.9293213-0.6400146-1.7053833-1.5-1.9289551V8.9289703c0.1767578-0.0459595,0.3425293-0.1158447,0.4968872-0.2055054   l2.2796631,2.2796631C15.1053467,11.2978058,15,11.6353302,15,12.0000153c0,1.1030273,0.8974609,2,2,2s2-0.8969727,2-2   S18.1025391,10.0000153,17,10.0000153z" />
            <path d="M0.4384766,11.1820221L10.9394531,0.6751862   c0.5644531-0.5667725,1.5556641-0.5672607,2.1220703,0.0004883l10.4990234,10.5058594c0,0,0,0.0004883,0.0009766,0.0004883   c0.2523193,0.2537842,0.3969727,0.583252,0.4262695,0.935791C23.991272,12.075943,24,12.0352325,24,11.9927521   c0-0.4001465-0.15625-0.7768555-0.4384766-1.06073c-0.0009766,0-0.0009766-0.0004883-0.0009766-0.0004883L13.0615234,0.4256744   c-0.5664063-0.567749-1.5576172-0.5672607-2.1220703-0.0004883L0.4384766,10.9320221C0.15625,11.2158966,0,11.5926056,0,11.9927521   c0,0.0424194,0.008728,0.0831299,0.012207,0.124939C0.0415649,11.765152,0.1862183,11.4357452,0.4384766,11.1820221z" opacity="0.2" />
            <linearGradient gradientUnits="userSpaceOnUse" id="SVGID_1_" x1="9.6692657" x2="18.3065948" y1="9.6760864" y2="18.3134155">
                <stop offset="0" style="stop-color:#010101;stop-opacity:0.1" />
                <stop offset="1" style="stop-color:#010101;stop-opacity:0" />
            </linearGradient>
            <path d="M18.5488281,10.7503815C18.8265381,11.0938263,19,11.5248566,19,12.0000153   c0,1.1030273-0.8974609,2-2,2s-2-0.8969727-2-2c0-0.3646851,0.1053467-0.7022095,0.2765503-0.9968872L12.9968872,8.723465   C12.8425293,8.8131256,12.6767578,8.8830109,12.5,8.9289703v6.1420898c0.8599854,0.2235718,1.5,0.9996338,1.5,1.9289551   c0,1.1030273-0.8974609,2-2,2c-0.5114746,0-0.9738159-0.1986694-1.3278809-0.5157471l3.7318115,3.7318115l7.8029175-7.8076782   L18.5488281,10.7503815z M13.7097168,8.0222321l2.2680664,2.2680664C16.2780151,10.1100616,16.6251221,10.0000153,17,10.0000153   c0.4750977,0,0.90625,0.1735229,1.2498169,0.451355l-4.6776733-4.6777344L13.5697021,5.77565   C13.835144,6.1150665,14,6.5366364,14,7.0000153C14,7.3749542,13.8898926,7.7220612,13.7097168,8.0222321z" fill="url(#SVGID_1_)" />
            <linearGradient gradientUnits="userSpaceOnUse" id="SVGID_2_" x1="2.0138185" x2="21.983366" y1="7.3399205" y2="16.6518726">
                <stop offset="0" style="stop-color:#FFFFFF;stop-opacity:0.2" />
                <stop offset="1" style="stop-color:#FFFFFF;stop-opacity:0" />
            </linearGradient>
            <path d="M23.5615234,10.9320221c-0.0009766,0-0.0009766-0.0004883-0.0009766-0.0004883L13.0615234,0.4256744   c-0.5664063-0.567749-1.5576172-0.5672607-2.1220703-0.0004883L0.4384766,10.9320221C0.15625,11.2158966,0,11.5926056,0,11.9927521   c0,0.4006348,0.15625,0.777771,0.4394531,1.0611572l10.4990234,10.5058594   C11.2216797,23.8436432,11.5986328,24.0000153,12,24.0000153s0.7783203-0.1563721,1.0605469-0.4397583l10.5-10.5063477   C23.84375,12.7705231,24,12.3933868,24,11.9927521C24,11.5926056,23.84375,11.2158966,23.5615234,10.9320221z" fill="url(#SVGID_2_)" />
        </g>
        <g />
        <g />
        <g />
        <g />
        <g />
        <g />
        <g />
        <g />
        <g />
        <g />
        <g />
        <g />
        <g />
        <g />
        <g />
    </symbol>

    <symbol enable-background="new 0 0 32 32" id="wordpress" version="1.0" viewBox="0 0 32 32"
        xml:space="preserve" xmlns="http://www.w3.org/2000/svg"
        xmlns:xlink="http://www.w3.org/1999/xlink">
        <path d="M16,0C7.178,0,0,7.178,0,16s7.178,16.001,16,16.001S32,24.822,32,16S24.822,0,16,0z M1.615,16  c0-2.086,0.447-4.065,1.246-5.854l6.861,18.8C4.924,26.615,1.615,21.694,1.615,16z M16,30.386c-1.412,0-2.775-0.206-4.063-0.585  l4.316-12.542l4.422,12.114c0.029,0.07,0.064,0.136,0.103,0.197C19.282,30.098,17.676,30.386,16,30.386z M17.982,9.255  c0.866-0.045,1.646-0.136,1.646-0.136c0.775-0.092,0.684-1.231-0.092-1.186c0,0-2.329,0.183-3.834,0.183  c-1.414,0-3.789-0.183-3.789-0.183c-0.775-0.046-0.866,1.139-0.091,1.186c0,0,0.734,0.091,1.509,0.136l2.241,6.142l-3.148,9.441  L7.187,9.255C8.054,9.21,8.833,9.119,8.833,9.119c0.773-0.092,0.684-1.231-0.092-1.186c0,0-2.33,0.183-3.835,0.183  c-0.27,0-0.588-0.006-0.926-0.018C6.554,4.193,10.975,1.615,16,1.615c3.745,0,7.155,1.431,9.715,3.777  c-0.062-0.005-0.123-0.013-0.187-0.013c-1.413,0-2.416,1.231-2.416,2.554c0,1.186,0.684,2.188,1.413,3.374  c0.547,0.957,1.187,2.188,1.187,3.968c0,1.23-0.474,2.659-1.095,4.65l-1.436,4.793L17.982,9.255z M28.623,9.099  c1.123,2.05,1.762,4.4,1.762,6.901c0,5.308-2.876,9.94-7.152,12.435l4.394-12.704c0.82-2.052,1.094-3.693,1.094-5.151  C28.72,10.049,28.686,9.558,28.623,9.099z" />
        <g />
        <g />
        <g />
        <g />
        <g />
        <g />
    </symbol>

    <symbol enable-background="new 0 0 32 32" id="css" version="1.0" viewBox="0 0 32 32"
        xml:space="preserve" xmlns="http://www.w3.org/2000/svg"
        xmlns:xlink="http://www.w3.org/1999/xlink">
        <g>
            <polygon fill="#1F62AE" points="27.377,28.889 16.001,32 4.625,28.889 2,0 30.002,0  " />
            <polygon fill="#347DC6" points="16,2 16,29.75 25.232,27.008 27.688,2  " />
            <polygon points="24.363,6 7.607,6 8,10 16,10 8.25,12.99 8.619,17 19.502,17 19.158,21 16,21.99 12.861,20.984    12.533,19 8.803,19 9.262,23.987 16,25.99 22.728,23.986 23.719,12.99 16.026,12.99 24,10  " />
        </g>
        <g />
        <g />
        <g />
        <g />
        <g />
        <g />
    </symbol>

    <symbol enable-background="new 0 0 32 32" id="html" version="1.0" viewBox="0 0 32 32"
        xml:space="preserve" xmlns="http://www.w3.org/2000/svg"
        xmlns:xlink="http://www.w3.org/1999/xlink">
        <g>
            <polygon fill="#E44D26" points="27.377,28.889 16.001,32 4.625,28.889 2,0 30.002,0  " />
            <polygon fill="#FF6C39" points="16,2 16,29.75 25.232,27.008 27.688,2  " />
            <polygon points="24.363,6 7.607,6 8,10 8.619,17 19.503,17 19.148,20.984 16,21.99 12.857,20.984 12.648,19    8.803,19 9.262,23.987 16,25.99 22.728,23.986 23.718,13 12.252,13 12.002,10 24,10  " />
        </g>
        <g />
        <g />
        <g />
        <g />
        <g />
        <g />
    </symbol>

    <symbol id="code" viewBox="0 0 96 96" xmlns="http://www.w3.org/2000/svg">
        <title />
        <g>
            <path
                d="M24.8452,25.3957a6.0129,6.0129,0,0,0-8.4487.7617L1.3974,44.1563a5.9844,5.9844,0,0,0,0,7.687L16.3965,69.8422a5.9983,5.9983,0,1,0,9.21-7.687L13.8068,48l11.8-14.1554A6,6,0,0,0,24.8452,25.3957Z" />
            <path
                d="M55.1714,12.1192A6.0558,6.0558,0,0,0,48.1172,16.83L36.1179,76.8262A5.9847,5.9847,0,0,0,40.8286,83.88a5.7059,5.7059,0,0,0,1.1835.1172A5.9949,5.9949,0,0,0,47.8828,79.17L59.8821,19.1735A5.9848,5.9848,0,0,0,55.1714,12.1192Z" />
            <path
                d="M94.6026,44.1563,79.6035,26.1574a5.9983,5.9983,0,1,0-9.21,7.687L82.1932,48l-11.8,14.1554a5.9983,5.9983,0,1,0,9.21,7.687L94.6026,51.8433A5.9844,5.9844,0,0,0,94.6026,44.1563Z" />
        </g>
    </symbol>

    <symbol id="link" class="feather feather-link" fill="none" stroke="currentColor"
        stroke-linecap="round" stroke-linejoin="round" stroke-width="2" viewBox="0 0 24 24"
        xmlns="http://www.w3.org/2000/svg">
        <path d="M10 13a5 5 0 0 0 7.54.54l3-3a5 5 0 0 0-7.07-7.07l-1.72 1.71" />
        <path d="M14 11a5 5 0 0 0-7.54-.54l-3 3a5 5 0 0 0 7.07 7.07l1.71-1.71" />
    </symbol>

    <symbol id="project" enable-background="new 0 0 128 128" version="1.1" viewBox="0 0 128 128"
        xml:space="preserve" xmlns="http://www.w3.org/2000/svg"
        xmlns:xlink="http://www.w3.org/1999/xlink">
        <path d="M109,43.1V42c0-5.5-4.5-10-10-10H74c-3.3,0-6-3.2-6-6.5V26c0-5.5-4.5-10-10-10H21c-5.5,0-10,4.5-10,10v77  c0,5.5,4.5,10,10,10l0,0h87c5.5,0,10-4.5,10-10V53C118,47.8,114,43.6,109,43.1z M21,109c-3.3,0-6-2.7-6-6V26c0-3.3,2.7-6,6-6h37  c3.3,0,6,2.7,6,6c0,5.5,4.5,10,10,10h25c3.3,0,6,2.7,6,6v1H37c-5.5,0-10,4.5-10,10v50C27,106.3,24.3,109,21,109L21,109z M114,103  c0,3.3-2.7,6-6,6H29c1.3-1.7,2-3.8,2-6V53c0-3.3,2.7-6,6-6h71c3.3,0,6,2.7,6,6V103z" />
    </symbol>

    <symbol data-name="Layer 1" id="instagram" viewBox="0 0 128 128"
        xmlns="http://www.w3.org/2000/svg">
        <defs>
            <style>.cls-1{fill:#062b31;}</style>
        </defs>
        <title />
        <path class="cls-1"
            d="M83,23a22,22,0,0,1,22,22V83a22,22,0,0,1-22,22H45A22,22,0,0,1,23,83V45A22,22,0,0,1,45,23H83m0-8H45A30.09,30.09,0,0,0,15,45V83a30.09,30.09,0,0,0,30,30H83a30.09,30.09,0,0,0,30-30V45A30.09,30.09,0,0,0,83,15Z" />
        <path class="cls-1" d="M90.14,32a5.73,5.73,0,1,0,5.73,5.73A5.73,5.73,0,0,0,90.14,32Z" />
        <path class="cls-1"
            d="M64.27,46.47A17.68,17.68,0,1,1,46.6,64.14,17.7,17.7,0,0,1,64.27,46.47m0-8A25.68,25.68,0,1,0,90,64.14,25.68,25.68,0,0,0,64.27,38.47Z" />
    </symbol>

    <symbol baseProfile="tiny" id="facebook" version="1.2" viewBox="0 0 24 24" xml:space="preserve"
        xmlns="http://www.w3.org/2000/svg" xmlns:xlink="http://www.w3.org/1999/xlink">
        <g>
            <path d="M13,10h3v3h-3v7h-3v-7H7v-3h3V8.745c0-1.189,0.374-2.691,1.118-3.512C11.862,4.41,12.791,4,13.904,4H16v3h-2.1   C13.402,7,13,7.402,13,7.899V10z" />
        </g>
    </symbol>

    <symbol id="telegram" viewBox="0 0 448 512" xmlns="http://www.w3.org/2000/svg">
        <path
            d="M446.7 98.6l-67.6 318.8c-5.1 22.5-18.4 28.1-37.3 17.5l-103-75.9-49.7 47.8c-5.5 5.5-10.1 10.1-20.7 10.1l7.4-104.9 190.9-172.5c8.3-7.4-1.8-11.5-12.9-4.1L117.8 284 16.2 252.2c-22.1-6.9-22.5-22.1 4.6-32.7L418.2 66.4c18.4-6.9 34.5 4.1 28.5 32.2z" />
    </symbol>

    <symbol id="github" class="feather feather-github" stroke-linecap="round"
        stroke-linejoin="round" stroke-width="2" viewBox="0 0 24 24"
        xmlns="http://www.w3.org/2000/svg">
        <path
            d="M9 19c-5 1.5-5-2.5-7-3m14 6v-3.87a3.37 3.37 0 0 0-.94-2.61c3.14-.35 6.44-1.54 6.44-7A5.44 5.44 0 0 0 20 4.77 5.07 5.07 0 0 0 19.91 1S18.73.65 16 2.48a13.38 13.38 0 0 0-7 0C6.27.65 5.09 1 5.09 1A5.07 5.07 0 0 0 5 4.77a5.44 5.44 0 0 0-1.5 3.78c0 5.42 3.3 6.61 6.44 7A3.37 3.37 0 0 0 9 18.13V22" />
    </symbol>

    <symbol id="phone" style="enable-background:new 0 0 56.7 56.7;" version="1.1"
        viewBox="3 3 50 50" xml:space="preserve" xmlns="http://www.w3.org/2000/svg"
        xmlns:xlink="http://www.w3.org/1999/xlink">
        <g transform="translate(0.000000,950.000000) scale(0.100000,-0.100000)">
            <path d="M113.3835,9464.4268c-9.5542-1.0557-20.323-4.4873-29.771-9.3965c-22.2234-11.7178-38.7445-34.5215-43.126-59.6475   c-0.9507-5.3311-1.0033-12.5098-1.0033-178.415v-172.873l1.2147-5.3838c7.601-34.3633,31.8819-58.6455,66.2458-66.2461   l5.384-1.2139h173.6645h173.6653l5.384,1.2139c34.363,7.6006,58.6448,31.8828,66.2458,66.2461l1.2138,5.3838v172.873   c0,165.9053-0.0526,173.084-1.0023,178.415c-1.32,7.707-3.9588,15.4668-7.9713,23.4893   c-12.5096,25.1797-37.636,42.5986-65.823,45.6602C451.2644,9465.2188,119.6121,9465.165,113.3835,9464.4268z M301.986,9376.6436   c18.1584-2.2695,32.8326-6.6504,48.9327-14.5156c15.8352-7.7598,25.9698-15.0967,39.3776-28.4512   c12.5631-12.6162,19.531-22.1699,26.9207-37.0029c10.2935-20.6924,16.1528-45.29,17.1552-72.3691   c0.3701-9.2363,0.1062-11.2959-2.0058-13.9346c-4.0114-5.1211-12.8272-4.2754-15.8353,1.4775   c-0.9507,1.9004-1.2147,3.5361-1.5313,10.9268c-0.528,11.3486-1.319,18.6855-2.9029,27.4482   c-6.2285,34.3633-22.6979,61.8115-48.9854,81.501c-21.9058,16.4688-44.5511,24.4932-74.2159,26.2344   c-10.0295,0.5811-11.7713,0.9502-14.0409,2.6924c-4.2238,3.3252-4.4341,11.1367-0.3701,14.7793   c2.4811,2.2705,4.2228,2.5869,12.8272,2.3232C291.7987,9377.5947,298.3965,9377.0664,301.986,9376.6436z M181.3184,9370.9434   c1.8479-0.6338,4.6982-2.1113,6.3347-3.167c10.0286-6.6514,37.9525-42.3867,47.0849-60.2285   c5.2252-10.1875,6.9669-17.7363,5.3314-23.3311c-1.6901-6.0176-4.4868-9.1855-16.9973-19.2676   c-5.0147-4.0635-9.7129-8.2334-10.4513-9.3428c-1.9005-2.7451-3.4318-8.1289-3.4318-11.9297   c0.0536-8.8145,5.7541-24.8086,13.2499-37.1084c5.8057-9.5537,16.2044-21.7998,26.4979-31.1953   c12.0878-11.0859,22.7505-18.6338,34.7857-24.5986c15.466-7.7061,24.915-9.6592,31.8302-6.4404   c1.7417,0.792,3.5887,1.8486,4.1701,2.3223c0.527,0.4756,4.592,5.4375,9.0262,10.9268   c8.5508,10.7695,10.5039,12.5107,16.3632,14.5166c7.4432,2.5332,15.0442,1.8477,22.6978-2.0586   c5.8067-3.0088,18.4751-10.874,26.6567-16.5742c10.7679-7.5488,33.7823-26.3408,36.8976-30.0889   c5.4892-6.7559,6.4399-15.4121,2.7441-24.9678c-3.9062-10.0811-19.1083-28.9785-29.7184-37.0547   c-9.6067-7.2852-16.4158-10.0811-25.3894-10.5039c-7.3896-0.3691-10.4513,0.2637-19.9003,4.1699   c-74.1107,30.5625-133.2834,76.1689-180.263,138.8262c-24.5448,32.7266-43.2312,66.668-56.0058,101.876   c-7.4422,20.5332-7.8115,29.4541-1.6891,39.959c2.6398,4.4336,13.8831,15.4131,22.0647,21.5361   c13.6191,10.1348,19.9003,13.8828,24.915,14.9385C171.5529,9372.8965,177.5173,9372.3154,181.3184,9370.9434z M305.6283,9338.374   c32.0415-4.6973,56.8503-19.583,73.1082-43.7588c9.1323-13.6182,14.8329-29.6123,16.786-46.7676   c0.6858-6.2822,0.6858-17.7363-0.0526-19.6367c-0.6868-1.7949-2.9038-4.2227-4.8044-5.2256   c-2.0584-1.0557-6.4389-0.9502-8.8674,0.3164c-4.065,2.0586-5.2787,5.332-5.2787,14.1992c0,13.6719-3.537,28.082-9.6593,39.2725   c-6.9679,12.7744-17.1024,23.3311-29.4542,30.6689c-10.61,6.334-26.2874,11.0322-40.5924,12.1934   c-5.1735,0.4229-8.0238,1.4775-9.9769,3.748c-3.0081,3.4307-3.3256,8.0762-0.792,11.9287   C288.7897,9339.5889,293.0125,9340.2754,305.6283,9338.374z M316.8716,9298.5215c10.3987-2.2168,18.3699-6.1758,25.179-12.5635   c8.7622-8.2861,13.5664-18.3164,15.6773-32.7266c1.4252-9.3955,0.8446-13.0908-2.4811-16.1523   c-3.1141-2.8506-8.8672-2.9561-12.3517-0.2637c-2.5337,1.9004-3.3257,3.9062-3.9062,9.3428   c-0.6858,7.2314-1.953,12.2988-4.1166,16.9971c-4.6456,9.9766-12.8272,15.1494-26.6567,16.8389   c-6.4935,0.792-8.4465,1.5303-10.5575,4.0107c-3.8536,4.5928-2.3759,12.0361,2.9555,14.7803   c2.0067,1.0029,2.8512,1.1094,7.2845,0.8447C310.643,9299.4717,314.708,9298.9971,316.8716,9298.5215z" />
        </g>
    </symbol>

    <symbol id="send" style="enable-background:new 0 0 24 24;" version="1.1" viewBox="0 0 24 24"
        xml:space="preserve" xmlns="http://www.w3.org/2000/svg"
        xmlns:xlink="http://www.w3.org/1999/xlink">
        <g id="info" />
        <g id="icons">
            <path d="M21.5,11.1l-17.9-9C2.7,1.7,1.7,2.5,2.1,3.4l2.5,6.7L16,12L4.6,13.9l-2.5,6.7c-0.3,0.9,0.6,1.7,1.5,1.2l17.9-9   C22.2,12.5,22.2,11.5,21.5,11.1z" id="send" />
        </g>
    </symbol>

    <symbol id="download" viewBox="0 0 512 512" xmlns="http://www.w3.org/2000/svg">
        <path
            d="M216 0h80c13.3 0 24 10.7 24 24v168h87.7c17.8 0 26.7 21.5 14.1 34.1L269.7 378.3c-7.5 7.5-19.8 7.5-27.3 0L90.1 226.1c-12.6-12.6-3.7-34.1 14.1-34.1H192V24c0-13.3 10.7-24 24-24zm296 376v112c0 13.3-10.7 24-24 24H24c-13.3 0-24-10.7-24-24V376c0-13.3 10.7-24 24-24h146.7l49 49c20.1 20.1 52.5 20.1 72.6 0l49-49H488c13.3 0 24 10.7 24 24zm-124 88c0-11-9-20-20-20s-20 9-20 20 9 20 20 20 20-9 20-20zm64 0c0-11-9-20-20-20s-20 9-20 20 9 20 20 20 20-9 20-20z" />
    </symbol>

    <symbol id="arrow" viewBox="0 0 24 24" xmlns="http://www.w3.org/2000/svg">
        <defs>
            <style>.cls-1{fill:#232323;}</style>
        </defs>
        <path class="cls-1"
            d="M12,1A11,11,0,1,0,23,12,11,11,0,0,0,12,1Zm6.707,11.707-4,4a1,1,0,0,1-1.414-1.414L15.586,13H6a1,1,0,0,1,0-2h9.586L13.293,8.707a1,1,0,1,1,1.414-1.414l4,4A1,1,0,0,1,18.707,12.707Z" />
    </symbol>

    <symbol id="angular" style="enable-background:new 0 0 512 512;" version="1.1"
        viewBox="0 0 512 512" xml:space="preserve"
        xmlns="http://www.w3.org/2000/svg" xmlns:xlink="http://www.w3.org/1999/xlink"><g id="_x32_1-angular"><g><path d="M216.879,268.426h78.241L256,174.372L216.879,268.426L216.879,268.426z M256,26.001L42.635,102.395    l32.652,283.081L256,485.999l180.712-100.523l32.653-283.081L256,26.001z M389.688,376.957h-49.904l-26.9-67.153H199.321    l-26.903,67.153h-50.003L256,76.827L389.688,376.957z"/></g></g><g id="Layer_1"/>
    </symbol>

    <symbol id="ngrx" xmlns="http://www.w3.org/2000/svg" viewBox="44 11 911.963 978.148">
        <g fill="none" fill-rule="evenodd">
            <path d="M500.963 11L44 169.62l65.419 606.244 391.544 213.284z" fill="#412846" />
            <path d="M499 11l456.963 158.62-65.42 606.244L499 989.148z" fill="#4b314f" />
            <path
                d="M727.748 345.712l-.082-.26c20.865 23.224 31.583 50.799 32.152 82.727.57 31.927-10.148 65.607-32.399 100.935 16.63-12.928 35.835-40.833 57.552-83.393 9.381 86.252-25.475 151.768-104.894 196.637 25.356-2.338 59.021-19.032 100.775-50.14-44.557 107.274-126.484 163.873-245.78 169.798-115.293-.031-189.981-69.315-189.923-69.271-47.4-36.892-80.013-83.389-97.728-139.284-28.35-30.96-28.632-34.28-31.557-46.65-2.924-12.372 1.848-15.828 10.152-27.933 5.537-8.07 6.841-19.68 3.997-34.62-7.058-9.788-11.122-25.117-12.193-45.988 0-10.086 6.73-20.728 20.194-31.925 13.462-11.198 21.722-19.81 24.714-25.738 2.282-3.233 3.164-17.246 2.645-42.04-.14-24.353 13.382-37.603 40.565-39.748 40.773-3.22 63.768-33.884 76.578-47.83 8.54-9.297 21.18-13.816 37.12-13.903 22.444-1.052 42.864 7.551 60.455 25.305 43.815-2.266 88.696 9.55 134.171 35.148 64.624 38.389 99.893 79.961 105.806 124.508-6.926 58.625-85.68 57.093-235.91-4.612-78.617 22.269-117.268 70.525-115.984 144.768-.053 68.129 32.92 117.635 98.693 148.468-32.058-31.473-45.71-57.927-41.112-79.835 66.68 78.967 142.632 108.482 227.726 88.551-37.516 1.31-67.233-10.762-89.598-36.396 57.518-1.398 111.815-28.099 162.945-80.373-29.515 23.488-60.4 32.381-93.101 26.787 88.567-69.631 119.908-150.862 94.021-243.693zM567 335c7.18 0 13-5.82 13-13s-5.82-13-13-13-13 5.82-13 13 5.82 13 13 13z"
                fill="#ba2bd2" />
        </g>
    </symbol>
</svg>