<svg>
    
    <symbol id="house" viewBox="0 0 576 512" xmlns="http://www.w3.org/2000/svg">
        <path d="M511.8 287.6L512.5 447.7C512.5 450.5 512.3 453.1 512 455.8V472C512 494.1 494.1 512 472 512H456C454.9 512 453.8 511.1 452.7 511.9C451.3 511.1 449.9 512 448.5 512H392C369.9 512 352 494.1 352 472V384C352 366.3 337.7 352 320 352H256C238.3 352 224 366.3 224 384V472C224 494.1 206.1 512 184 512H128.1C126.6 512 125.1 511.9 123.6 511.8C122.4 511.9 121.2 512 120 512H104C81.91 512 64 494.1 64 472V360C64 359.1 64.03 358.1 64.09 357.2V287.6H32.05C14.02 287.6 0 273.5 0 255.5C0 246.5 3.004 238.5 10.01 231.5L266.4 8.016C273.4 1.002 281.4 0 288.4 0C295.4 0 303.4 2.004 309.5 7.014L416 100.7V64C416 46.33 430.3 32 448 32H480C497.7 32 512 46.33 512 64V185L564.8 231.5C572.8 238.5 576.9 246.5 575.8 255.5C575.8 273.5 560.8 287.6 543.8 287.6L511.8 287.6z" />
    </symbol>

    <symbol id="user" overflow="hidden" version="1.1" viewBox="8 10 80 70" xmlns="http://www.w3.org/2000/svg" xmlns:xlink="http://www.w3.org/1999/xlink">
        <g>
            <circle cx="48" cy="30" r="16" />
            <path d=" M 80 82 L 80 66 C 80 63.6 78.8 61.2 76.8 59.6 C 72.4 56 66.8 53.6 61.2 52 C 57.2 50.8 52.8 50 48 50 C 43.6 50 39.2 50.8 34.8 52 C 29.2 53.6 23.6 56.4 19.2 59.6 C 17.2 61.2 16 63.6 16 66 L 16 82 L 80 82 Z" />
        </g>
    </symbol>

    <symbol id="case" style="enable-background:new 0 0 32 32;" version="1.1" viewBox="2 3 28 25" xml:space="preserve" xmlns="http://www.w3.org/2000/svg" xmlns:xlink="http://www.w3.org/1999/xlink">
        <g>
            <path d="M26,9h-2.6c-1.2-3-4.1-5-7.4-5c-3.3,0-6.2,2-7.4,5H6c-1.7,0-3,1.3-3,3v0.6C3,16.1,5.9,19,9.4,19h13.3   c3.5,0,6.4-2.9,6.4-6.4V12C29,10.3,27.7,9,26,9z M16,6c2.2,0,4.1,1.2,5.2,3H10.8C11.9,7.2,13.8,6,16,6z" />
            <path d="M23,21C23,21,23,21,23,21l0,2c0,0.6-0.4,1-1,1s-1-0.4-1-1v-2H11v2c0,0.6-0.4,1-1,1s-1-0.4-1-1v-2c0,0,0,0,0,0   c-2.4-0.1-4.5-1.2-6-2.9V25c0,1.7,1.3,3,3,3h20c1.7,0,3-1.3,3-3v-6.9C27.5,19.8,25.4,20.9,23,21z" />
        </g>
    </symbol>

    <symbol id="mail" style="enable-background:new 0 0 512 512;" version="1.1" viewBox="50 90 390 300" xml:space="preserve" xmlns="http://www.w3.org/2000/svg" xmlns:xlink="http://www.w3.org/1999/xlink">
        <g>
            <path d="M67,148.7c11,5.8,163.8,89.1,169.5,92.1c5.7,3,11.5,4.4,20.5,4.4c9,0,14.8-1.4,20.5-4.4c5.7-3,158.5-86.3,169.5-92.1   c4.1-2.1,11-5.9,12.5-10.2c2.6-7.6-0.2-10.5-11.3-10.5H257H65.8c-11.1,0-13.9,3-11.3,10.5C56,142.9,62.9,146.6,67,148.7z" />
            <path d="M455.7,153.2c-8.2,4.2-81.8,56.6-130.5,88.1l82.2,92.5c2,2,2.9,4.4,1.8,5.6c-1.2,1.1-3.8,0.5-5.9-1.4l-98.6-83.2   c-14.9,9.6-25.4,16.2-27.2,17.2c-7.7,3.9-13.1,4.4-20.5,4.4c-7.4,0-12.8-0.5-20.5-4.4c-1.9-1-12.3-7.6-27.2-17.2l-98.6,83.2   c-2,2-4.7,2.6-5.9,1.4c-1.2-1.1-0.3-3.6,1.7-5.6l82.1-92.5c-48.7-31.5-123.1-83.9-131.3-88.1c-8.8-4.5-9.3,0.8-9.3,4.9   c0,4.1,0,205,0,205c0,9.3,13.7,20.9,23.5,20.9H257h185.5c9.8,0,21.5-11.7,21.5-20.9c0,0,0-201,0-205   C464,153.9,464.6,148.7,455.7,153.2z" />
        </g>
    </symbol>

    <symbol id="education" style="enable-background:new 0 0 16 16;" version="1.1" viewBox="0 0 16 16" xml:space="preserve" xmlns="http://www.w3.org/2000/svg" xmlns:xlink="http://www.w3.org/1999/xlink">
        <polygon points="0,5 8,9 15,5.5 15,14 16,14 16,5 8,1 " />
        <polygon points="3,7.059 3,11.5 8,14 13,11.5 13,7.059 8,9.559 " />
    </symbol>

</svg>